# xmcd
#
# Track frame offsets: 
#        150
#        10672
#        27622
#        43935
#        54472
#        66430
#        83880
#        99730
#        113470
#        131032
#        144912
#        158177
#        175552
#        189350
#        202695
#
# Disc length: 2882 seconds
#
# Revision: 1
# Processed by: cddbd v1.5.2PL0 Copyright (c) Steve Scherf et al.
# Submitted via: ExactAudioCopyFreeDBPlugin 1.0
#
DISCID=c20b400f
DTITLE=Various Artist - Get in line and dance Christmas
DYEAR=1997
DGENRE=Country
TTITLE0=Country Cousins - Rockin' Around The Christmas Tree
TTITLE1=Mandy Allen - Christmas Country Boy
TTITLE2=Gledwood Ramblers - Sleigh Ride
TTITLE3=Aaron J Woolley - Rudolph the Red Nose Reindeer
TTITLE4=Country Cousins - Snowy White Snow and Jingle Bells
TTITLE5=Chris and The Cool Yule Gang - Santa's Lost His Ho Ho Ho
TTITLE6=Maureen Monroe - Santa Claus Is Coming To Town
TTITLE7=Aaron J Woolley - Christmas Thru' To New Year's Day
TTITLE8=Big Al - The House Where Mr Santa Claus Lives
TTITLE9=Tom Banks - Where Did Christmas Go?
TTITLE10=Chris Slayer - Line Hop Boogie
TTITLE11=Aaron J Woolley - (It's Here) Christmas Time
TTITLE12=Country Cousins - Here Comes Santa Claus
TTITLE13=Country Cousins - Have Yourself a Merry Little Christmas
TTITLE14=Aaron J Woolley - Winter Wonderland
EXTD=
EXTT0=
EXTT1=
EXTT2=
EXTT3=
EXTT4=
EXTT5=
EXTT6=
EXTT7=
EXTT8=
EXTT9=
EXTT10=
EXTT11=
EXTT12=
EXTT13=
EXTT14=
PLAYORDER=
